<svg width="160" height="57" viewBox="0 0 160 57" fill="none" xmlns="http://www.w3.org/2000/svg">
<g clip-path="url(#clip0_2_394)">
<path fill-rule="evenodd" clip-rule="evenodd" d="M-5.24152 62.2778H62.314V-5.27777H-5.24152V62.2778Z" fill="#E27533"/>
<mask id="mask0_2_394" style="mask-type:alpha" maskUnits="userSpaceOnUse" x="17" y="14" width="22" height="29">
<path d="M30.945 35.6355C30.945 37.4416 30.3117 38.9869 29.045 40.2694C27.7805 41.5519 26.252 42.1937 24.4629 42.1937H17.9807V14.7778H24.4618C26.2668 14.7778 27.7974 15.4195 29.0566 16.702C30.3149 17.9845 30.945 19.5214 30.945 21.3148V35.6355ZM22.1058 38.1055H24.5938C25.2482 38.1055 25.8013 37.868 26.252 37.3952C26.7038 36.9202 26.9286 36.3639 26.9286 35.7221V21.3803C26.9286 20.7248 26.6996 20.1632 26.2415 19.6967C25.814 19.2438 25.2165 18.9905 24.5938 18.9967H22.1058V38.1055ZM34.3175 42.1937H38.4426V24.2778H34.3175V42.1937Z" fill="white"/>
</mask>
<g mask="url(#mask0_2_394)">
<path fill-rule="evenodd" clip-rule="evenodd" d="M12.7029 47.4715H43.7204V9.5H12.7029V47.4715Z" fill="white"/>
</g>
</g>
<path d="M85.5323 34.324C85.5323 36.1373 85.0843 37.5347 84.1883 38.516C83.2923 39.476 81.9909 39.956 80.2843 39.956C78.5776 39.956 77.2763 39.476 76.3803 38.516C75.4843 37.5347 75.0363 36.1373 75.0363 34.324V22.676C75.0363 20.8627 75.4843 19.476 76.3803 18.516C77.2763 17.5347 78.5776 17.044 80.2843 17.044C81.9909 17.044 83.2923 17.5347 84.1883 18.516C85.0843 19.476 85.5323 20.8627 85.5323 22.676V24.852H82.2043V22.452C82.2043 20.98 81.5963 20.244 80.3803 20.244C79.1643 20.244 78.5563 20.98 78.5563 22.452V34.548C78.5563 35.9987 79.1643 36.724 80.3803 36.724C81.5963 36.724 82.2043 35.9987 82.2043 34.548V31.348H85.5323V34.324Z" fill="#9CA3AF"/>
<path d="M95.508 39.7L94.9 35.636H90.58L89.972 39.7H86.74L90.324 17.3H95.476L99.06 39.7H95.508ZM94.42 32.596L92.724 21.268L91.028 32.596H94.42Z" fill="#9CA3AF"/>
<path d="M108.059 39.7C107.931 39.3373 107.846 38.996 107.803 38.676C107.761 38.356 107.739 37.78 107.739 36.948V33.428C107.739 32.404 107.558 31.6787 107.195 31.252C106.833 30.804 106.246 30.58 105.435 30.58H104.219V39.7H100.699V17.3H106.011C107.825 17.3 109.147 17.7267 109.979 18.58C110.811 19.412 111.227 20.7027 111.227 22.452V24.212C111.227 26.516 110.459 28.0307 108.923 28.756C109.755 29.0973 110.353 29.6733 110.715 30.484C111.078 31.2733 111.259 32.2867 111.259 33.524V36.98C111.259 37.62 111.281 38.1427 111.323 38.548C111.366 38.932 111.473 39.316 111.643 39.7H108.059ZM104.219 27.38H105.595C106.299 27.38 106.822 27.1987 107.163 26.836C107.526 26.4733 107.707 25.8653 107.707 25.012V22.804C107.707 21.9933 107.558 21.4067 107.259 21.044C106.982 20.6813 106.534 20.5 105.915 20.5H104.219V27.38Z" fill="#9CA3AF"/>
<path d="M121.926 26.74V29.94H117.094V36.5H123.174V39.7H113.574V17.3H123.174V20.5H117.094V26.74H121.926Z" fill="#9CA3AF"/>
<path d="M133.708 26.74V29.94H128.876V36.5H134.956V39.7H125.356V17.3H134.956V20.5H128.876V26.74H133.708Z" fill="#9CA3AF"/>
<path d="M144.497 39.7C144.369 39.3373 144.283 38.996 144.241 38.676C144.198 38.356 144.177 37.78 144.177 36.948V33.428C144.177 32.404 143.995 31.6787 143.633 31.252C143.27 30.804 142.683 30.58 141.873 30.58H140.657V39.7H137.137V17.3H142.449C144.262 17.3 145.585 17.7267 146.417 18.58C147.249 19.412 147.665 20.7027 147.665 22.452V24.212C147.665 26.516 146.897 28.0307 145.361 28.756C146.193 29.0973 146.79 29.6733 147.153 30.484C147.515 31.2733 147.697 32.2867 147.697 33.524V36.98C147.697 37.62 147.718 38.1427 147.761 38.548C147.803 38.932 147.91 39.316 148.081 39.7H144.497ZM140.657 27.38H142.033C142.737 27.38 143.259 27.1987 143.601 26.836C143.963 26.4733 144.145 25.8653 144.145 25.012V22.804C144.145 21.9933 143.995 21.4067 143.697 21.044C143.419 20.6813 142.971 20.5 142.353 20.5H140.657V27.38Z" fill="#9CA3AF"/>
<path d="M149.564 22.676C149.564 20.8627 150.001 19.476 150.876 18.516C151.75 17.5347 153.041 17.044 154.748 17.044C156.454 17.044 157.745 17.5347 158.62 18.516C159.494 19.476 159.932 20.8627 159.932 22.676V23.38H156.604V22.452C156.604 21.684 156.454 21.1293 156.156 20.788C155.857 20.4253 155.42 20.244 154.844 20.244C154.268 20.244 153.83 20.4253 153.532 20.788C153.233 21.1293 153.084 21.684 153.084 22.452C153.084 23.3907 153.329 24.212 153.82 24.916C154.332 25.62 155.089 26.42 156.092 27.316C156.924 28.084 157.596 28.7667 158.108 29.364C158.62 29.94 159.057 30.644 159.42 31.476C159.782 32.308 159.964 33.2573 159.964 34.324C159.964 36.1373 159.516 37.5347 158.62 38.516C157.724 39.476 156.422 39.956 154.716 39.956C153.009 39.956 151.708 39.476 150.812 38.516C149.916 37.5347 149.468 36.1373 149.468 34.324V32.948H152.796V34.548C152.796 35.9987 153.404 36.724 154.62 36.724C155.836 36.724 156.444 35.9987 156.444 34.548C156.444 33.6093 156.188 32.788 155.676 32.084C155.185 31.38 154.438 30.58 153.436 29.684C152.604 28.916 151.932 28.244 151.42 27.668C150.908 27.0707 150.47 26.356 150.108 25.524C149.745 24.692 149.564 23.7427 149.564 22.676Z" fill="#9CA3AF"/>
<defs>
<clipPath id="clip0_2_394">
<rect width="57" height="57" fill="white" transform="translate(0.0362549)"/>
</clipPath>
</defs>
</svg>
